<?xml version="1.0" encoding="iso-8859-1"?>
<svg width="380" height="171" viewBox="0 0 380 171" xmlns="http://www.w3.org/2000/svg"><defs><linearGradient x1="0%" y1="50.001%" x2="99.994%" y2="50.001%" id="a"><stop stop-color="#0A8648" offset="0%"/><stop stop-color="#00988A" offset="50%"/><stop stop-color="#2BB8CB" offset="100%"/></linearGradient></defs><path d="M104.9 127.404c-6.782-1.976-13.887 1.907-15.876 8.677-1.99 6.77 1.888 13.87 8.665 15.866 6.777 1.997 13.893-1.863 15.903-8.627a12.781 12.781 0 0 0-1.037-9.76 12.813 12.813 0 0 0-7.654-6.156zm6.292 15.167c-1.17 4-4.639 6.9-8.787 7.35a10.318 10.318 0 0 1-10.162-5.297 10.286 10.286 0 0 1 1.016-11.4 10.323 10.323 0 0 1 10.938-3.423c5.461 1.6 8.591 7.315 6.995 12.77zm.572-17.994l.122-.403a3.866 3.866 0 0 0-2.626-4.784l-3.694-1.086a3.864 3.864 0 0 0-4.79 2.612l-.113.403a18.569 18.569 0 0 0-7.239 1.75l-.281-.3a3.866 3.866 0 0 0-2.7-1.188 3.829 3.829 0 0 0-2.757 1.077l-2.813 2.649a3.845 3.845 0 0 0-.131 5.449l.29.309a17.656 17.656 0 0 0-2.09 7.124l-.404.103a3.75 3.75 0 0 0-2.39 1.742 3.815 3.815 0 0 0-.45 2.911l.937 3.745a3.873 3.873 0 0 0 4.688 2.809l.403-.103a18.362 18.362 0 0 0 5.138 5.374l-.112.403a3.856 3.856 0 0 0 2.616 4.784l3.694 1.076a3.864 3.864 0 0 0 4.791-2.612l.122-.402a18.4 18.4 0 0 0 7.23-1.751l.28.3a3.867 3.867 0 0 0 5.457.13l2.813-2.658a3.855 3.855 0 0 0 1.191-2.697 3.798 3.798 0 0 0-1.069-2.752l-.29-.31a17.544 17.544 0 0 0 2.09-7.124l.413-.093a3.816 3.816 0 0 0 2.382-1.742 3.852 3.852 0 0 0 .459-2.92l-.938-3.746a3.882 3.882 0 0 0-4.688-2.808l-.403.103a18.324 18.324 0 0 0-5.138-5.374zm3.91 8.23l2.222-.534a1.37 1.37 0 0 1 1.65.992l.938 3.745a1.357 1.357 0 0 1-.994 1.638l-2.241.543v.936a16.277 16.277 0 0 1-.619 4.007 15.717 15.717 0 0 1-1.64 3.745l-.488.815 1.584 1.666c.5.525.5 1.349 0 1.873l-2.813 2.659a1.361 1.361 0 0 1-1.875-.047l-1.697-1.648-.834.45a15.865 15.865 0 0 1-7.82 1.872h-.938l-.647 2.21a1.379 1.379 0 0 1-1.697.936l-3.694-1.086a1.35 1.35 0 0 1-.938-1.686l.647-2.209-.815-.496a15.926 15.926 0 0 1-5.56-5.805l-.46-.833-2.231.543a1.342 1.342 0 0 1-1.022-.16 1.32 1.32 0 0 1-.62-.842l-.937-3.745a1.365 1.365 0 0 1 .16-1.03 1.34 1.34 0 0 1 .843-.608l2.232-.552v-.937c.032-1.353.236-2.696.61-3.997.39-1.313.944-2.572 1.65-3.745l.487-.815-1.594-1.666a1.319 1.319 0 0 1-.375-.936c.014-.355.165-.691.422-.937l2.813-2.65c.252-.241.588-.376.938-.374.357.005.696.158.937.422l1.585 1.647.844-.449c2.4-1.28 5.09-1.924 7.81-1.872h.938l.647-2.2a1.37 1.37 0 0 1 1.687-.937l3.75 1.086a1.36 1.36 0 0 1 .938 1.685l-.647 2.2.807.506a15.926 15.926 0 0 1 5.56 5.805l.497.814zm-.525-40.324a6.506 6.506 0 0 0-5.185.683c-9.086 5.524-30.782 20.298-36.014 38.105-4.21 15.06 4.485 30.702 19.512 35.1 15.027 4.4 30.804-4.079 35.404-19.025 5.223-17.789-5.054-41.943-9.714-51.493a6.56 6.56 0 0 0-4.003-3.37zm11.317 54.16c-4.29 13.507-18.596 21.121-32.216 17.147-13.62-3.975-21.57-18.083-17.9-31.77 4.988-16.965 26.075-31.298 34.917-36.672a3.971 3.971 0 0 1 5.626 1.648c4.547 9.24 14.552 32.674 9.573 49.648zm110.235-9.717c-9.646 23.206-34.94 35.77-59.295 29.453l.685-2.518c23.488 6.02 47.771-6.469 56.501-29.059 8.73-22.59-.856-48.129-22.306-59.424l-1.257-.655 5.26 16.646-2.494.786-5.56-17.61a3.188 3.188 0 0 1 .216-2.434 3.15 3.15 0 0 1 1.875-1.573l17.637-5.552.787 2.49-16.164 5.084 1.238.656c22.911 12.191 32.81 39.759 22.877 63.71zm-64.695 23.752c.255.81.177 1.69-.216 2.443a3.149 3.149 0 0 1-1.603 1.47l-.272.103-17.637 5.552-.787-2.49 16.164-5.094-1.228-.655c-22.898-12.18-32.8-39.723-22.887-63.663 9.652-23.206 34.945-35.771 59.304-29.463l-.694 2.518c-17.555-4.547-36.175 1.213-48.08 14.874a47.692 47.692 0 0 0-8.111 49.604 47.062 47.062 0 0 0 21.996 24.014l1.257.655-5.26-16.655 2.494-.786 5.56 17.573zm32.32-56.53l-15.256 6.339-2.297-22.301a2.26 2.26 0 1 0-4.397-.459l-13.708 42.814a2.254 2.254 0 0 0 .597 2.381c.653.607 1.601.774 2.422.427l16.962-7.021 1.79 22.918a2.211 2.211 0 0 0 2.016 2.06c.377.042.758-.012 1.107-.16a2.192 2.192 0 0 0 1.284-1.45l12.499-42.804a2.245 2.245 0 0 0-.659-2.308 2.253 2.253 0 0 0-2.37-.398l.01-.038zm-11.43 42.898l-1.875-24.548-19.578 8.099 12.902-40.426 2.475 24.06 17.815-7.358-11.74 40.173zm-69.89-116.84c-10.403 0-18.837 8.42-18.837 18.808s8.434 18.809 18.837 18.809 18.837-8.421 18.837-18.809c-.01-10.383-8.438-18.798-18.837-18.809zm0 34.864a16.09 16.09 0 0 1-14.866-9.92 16.048 16.048 0 0 1 3.492-17.509 16.107 16.107 0 0 1 17.538-3.476 16.065 16.065 0 0 1 9.925 14.85c-.01 8.866-7.209 16.05-16.089 16.055zm1.378-40.781h-2.756v-5.337h2.756v5.337zm-19.858 8.21l-3.75-3.745 1.94-1.938 3.75 3.745-1.94 1.938zm-6.283 17.882H92.9v-2.743h5.344v2.743zm4.445 20.86l-1.941-1.948 3.75-3.745 1.941 1.947-3.75 3.745zm21.696 2.499v5.327h-2.756V73.74h2.756zm18.93-2.5l-3.75-3.745 1.922-1.947 3.75 3.745-1.921 1.947zm9.799-20.859h-5.345v-2.743h5.345v2.743zM141.486 32.5l-1.95-1.938 3.75-3.745 1.95 1.938-3.75 3.745zm160.08 121.99h-.15l.056-.14c3.347-8.745 2.475-18.603-2.466-27.778v-.112a9.51 9.51 0 0 0 1.219-4.682 9.4 9.4 0 0 0-1.716-5.43l-.047-.084.066-.065 4.538-4.532a6.783 6.783 0 0 0 0-9.615l-3.526-3.51a6.814 6.814 0 0 0-9.62 0l-28.456 28.423a3.339 3.339 0 0 0 0 4.681l.572.571-.085.085-4.875 4.596 7.5 7.49 5.017-4.615.281.29a3.445 3.445 0 0 0 4.735 0l10.558-10.551.084.056a9.553 9.553 0 0 0 4.163 1.62h.075v.056c3.816 8.913 1.772 14.549-3.928 23.106v.046h-26.91v-3.8h18.443v-2.07h-38.94v2.07h18.434v3.8h-7.5c-3.969-.089-7.263 3.042-7.37 7.003v3.745h66.57v-3.745a7.205 7.205 0 0 0-6.722-6.909zm-36.933-12.91L260.048 137l3.46-3.248 4.613 4.606-3.488 3.22zm18.912-13.304l-10.408 10.373a1.239 1.239 0 0 1-.89.365c-.35.016-.69-.117-.938-.365l-8.439-8.426a1.272 1.272 0 0 1 0-1.797L291.336 100a4.74 4.74 0 0 1 6.695 0l3.525 3.52a4.678 4.678 0 0 1 0 6.675l-4.528 4.522-.085-.075a9.536 9.536 0 0 0-13.122.332 9.502 9.502 0 0 0-.333 13.103l.075.085-.018.112zm7.116.936c-4.142 0-7.5-3.353-7.5-7.49 0-4.136 3.358-7.49 7.5-7.49 4.143 0 7.501 3.354 7.501 7.49 0 4.137-3.358 7.49-7.5 7.49zm15.518 33.845H243.78v-1.648a5.135 5.135 0 0 1 5.298-4.934h37.505l.309-.45c7.782-11.543 7.735-17.366 4.838-24.669l-.056-.14h.15a9.606 9.606 0 0 0 5.626-2.81l.121-.111.066.15c4.482 8.903 4.923 18.35 1.238 26.579l-.657 1.45h2.635a5.126 5.126 0 0 1 5.298 4.935l.028 1.648zm73.078-17.882l-13.014-8.585-.938-15.532a1.584 1.584 0 0 0-1.575-1.489h-.553a1.584 1.584 0 0 0-1.576 1.489l-.619 10.532-22.371-14.764v-.113l-1.632-26.822a2.277 2.277 0 0 0-2.25-2.107h-.937a2.286 2.286 0 0 0-2.307 2.107l-1.631 26.897-.094.066-22.419 14.792a2.273 2.273 0 0 0-.722 3.034l.479.823a2.28 2.28 0 0 0 1.978 1.133c.351.004.699-.076 1.013-.234l20.215-9.999v.403l-2.335 36.354h-11.345v2.04h57.391v-2.04h-6.666l-1.407-20.429 11.477 5.72c.217.112.459.17.703.169.564 0 1.085-.3 1.369-.786l.281-.478a1.59 1.59 0 0 0-.497-2.153l-.018-.028zm-15.94-23.911h.328l.844 13.95a3.098 3.098 0 0 0-2.016 0l.844-13.95zm.169 15.475a1.462 1.462 0 1 1-1.472 1.46 1.462 1.462 0 0 1 1.463-1.432l.009-.028zm-2.447 4.007l-12.19 6.067-.168-.29 11.683-7.705c.103.519.339 1.002.684 1.404l-.01.524zm-23.197-17.985a4.875 4.875 0 0 0 1.322-2.752l.056-.365 20.975 13.837-.694 1.199-.197-.094-21.462-10.71-.066-1.04.066-.075zm-4.294-32.955h1.387v.216l1.5 24.819-.346-.14a4.948 4.948 0 0 0-3.75 0l-.338.14 1.547-25.035zm.694 26.57a2.951 2.951 0 0 1 2.953 2.95 2.951 2.951 0 0 1-2.953 2.949 2.951 2.951 0 0 1-2.954-2.95 2.951 2.951 0 0 1 2.944-2.92l.01-.029zm-25.25 18.304l-.704-1.199 20.975-13.837.056.365c.133.949.537 1.84 1.163 2.565l.065.075-.084 1.32-.122.056-21.35 10.655zm21.05 28.433v-.253l2.409-37.561 1.81-.937 1.64.815 2.579 37.936h-8.439zm21.874 0H340.57v-.225l-2.504-36.616 20.375 10.168c.314.158.66.241 1.012.243a2.234 2.234 0 0 0 1.313-.44v.375l-13.005 8.585a1.571 1.571 0 0 0-.497 2.106l.272.478a1.585 1.585 0 0 0 2.082.618l11.373-5.674-1.313 20.382h-7.763zm9.423 0l1.369-21.262.815-.402.704.355 1.444 21.309h-4.332zm16.783-16.272l-12.264-6.123v-.346c.394-.427.66-.956.769-1.526l11.683 7.705-.188.29zM81.085 72.747c-.938-2.434-3.235-4.24-6.423-5.074-.572-.16-1.125-.29-1.678-.412a14.14 14.14 0 0 1-6.62-2.968l-1.612-1.292-.094 2.06c-.122 2.809.066 9.774 4.397 13.482 2.4 2.06 5.626 2.808 9.677 2.097a14.029 14.029 0 0 1 1.415 4.269v.225l2.063-.319v-.234a15.9 15.9 0 0 0-1.8-5.243 7.48 7.48 0 0 0 .675-6.59zm-10.67 4.204c-2.363-2.022-3.235-5.42-3.535-8.154a57.514 57.514 0 0 0 7.192 6.385 17.886 17.886 0 0 1 3.45 3.473c-2.972.374-5.326-.206-7.107-1.704zm8.673.328a20.378 20.378 0 0 0-3.75-3.745 63.732 63.732 0 0 1-5.917-5.093c1.002.35 2.026.635 3.066.852.525.121 1.05.243 1.603.393 2.532.665 4.314 2.022 5.017 3.82a5.095 5.095 0 0 1-.019 3.773zm-2.55 21.533l-5.223-5.215a1.87 1.87 0 0 1 0-2.621l5.223-5.206 1.481 1.47-4.013 3.998h14.196a6.152 6.152 0 0 0 5.326-3.071 6.134 6.134 0 0 0 0-6.142l-5.251-9.072 1.81-1.048 5.25 9.081a8.228 8.228 0 0 1-.004 8.227 8.253 8.253 0 0 1-7.131 4.122H74.006l4.013 3.998-1.481 1.479zM62.277 64.359l-1.82-1.049 5.251-9.072a8.244 8.244 0 0 1 7.14-4.119 8.244 8.244 0 0 1 7.14 4.12l7.098 12.245 1.463-5.458 2.025.543-1.875 7.115a1.875 1.875 0 0 1-1.8 1.376 2.103 2.103 0 0 1-.479-.065l-7.126-1.873.544-2.012 5.466 1.46-7.126-12.32a6.162 6.162 0 0 0-5.335-3.076 6.162 6.162 0 0 0-5.335 3.075l-5.231 9.11zM50.163 89.188a8.135 8.135 0 0 1 0-8.23l7.088-12.274-5.466 1.47-.544-2.022 7.126-1.873a1.876 1.876 0 0 1 2.278 1.311l1.875 7.115-2.025.543-1.425-5.495-7.098 12.264a6.134 6.134 0 0 0 .002 6.146 6.152 6.152 0 0 0 5.333 3.067H67.8v2.097H57.307a8.178 8.178 0 0 1-7.144-4.12zM319.54 66.362h-1.82V55.128a2.37 2.37 0 0 0-2.371-2.36h-4.182a2.365 2.365 0 0 0-2.372 2.36v11.234h-2.42V43.08a2.361 2.361 0 0 0-2.362-2.36h-4.191a2.365 2.365 0 0 0-2.363 2.36v23.283h-2.428V53.864a2.358 2.358 0 0 0-2.363-2.36h-4.191a2.361 2.361 0 0 0-2.363 2.36v12.498h-2.429V48.246a2.358 2.358 0 0 0-2.4-2.359h-4.191a2.361 2.361 0 0 0-2.363 2.36v18.115h-1.884v2.5h46.693v-2.5zm-38.349 0h-3.928V48.378h3.928v17.984zm11.345 0h-3.928V53.995h3.928v12.367zm11.346 0h-3.929V43.191h3.929v23.171zm11.335 0h-3.928V55.25h3.919l.01 11.113zm-35.995-25.727a4.963 4.963 0 0 0 3.75-1.695l.066-.074 2.7 1.6v.085c-.045.244-.07.491-.074.74a4.953 4.953 0 0 0 3.185 4.623c1.919.733 4.091.21 5.464-1.315a4.947 4.947 0 0 0 .727-5.565v-.075l.056-.056 3.3-3.502.085.085a4.928 4.928 0 0 0 6.76.262l.094-.075.075.094 3.75 4.278-.046.075a4.928 4.928 0 0 0 .793 5.957 4.947 4.947 0 0 0 5.968.773 4.93 4.93 0 0 0 2.29-5.557 4.94 4.94 0 0 0-4.785-3.645 4.825 4.825 0 0 0-2.344.618h-.085l-.065-.075-4.285-4.69v-.066a4.957 4.957 0 0 0-1.458-5.197 4.975 4.975 0 0 0-5.347-.794 4.962 4.962 0 0 0-2.909 4.55c-.002.346.032.69.103 1.03v.056l-3.75 3.997h-.075a5.003 5.003 0 0 0-2.57-.74 4.944 4.944 0 0 0-3.75 1.77l-.066.075-2.681-1.573v-.084c.05-.275.078-.554.084-.833a4.953 4.953 0 0 0-3.055-4.583 4.965 4.965 0 0 0-5.409 1.068 4.947 4.947 0 0 0-1.079 5.398 4.96 4.96 0 0 0 4.583 3.06zm34.036-.496a2.455 2.455 0 0 1 2.456 2.453c0 1.354-1.1 2.453-2.456 2.453a2.455 2.455 0 0 1-2.457-2.453c0-1.355 1.1-2.453 2.457-2.453zm-11.345-10.617c1.005 0 1.912.605 2.296 1.534.384.928.17 1.996-.543 2.705a2.487 2.487 0 0 1-2.71.531 2.48 2.48 0 0 1-1.528-2.298 2.47 2.47 0 0 1 2.485-2.472zm-11.327 9.362a2.455 2.455 0 0 1 2.457 2.453c0 1.355-1.1 2.453-2.457 2.453a2.455 2.455 0 0 1-2.456-2.453 2.46 2.46 0 0 1 2.447-2.5l.01.047zm-11.345-5.617a2.455 2.455 0 0 1 2.457 2.453c0 1.354-1.1 2.453-2.457 2.453a2.455 2.455 0 0 1-2.457-2.453 2.46 2.46 0 0 1 2.448-2.481l.009.028zM248.853 93.54c0 1.534.61 3.006 1.697 4.091l.647.637a5.79 5.79 0 0 0 8.185 0l17.815-17.788.084.056c14.374 9.722 33.795 6.938 44.849-6.431 11.053-13.369 10.113-32.937-2.17-45.19-12.282-12.25-31.881-13.168-45.258-2.118-13.377 11.051-16.146 30.446-6.394 44.789l.057.074L250.55 89.45a5.744 5.744 0 0 0-1.697 4.091zm16.136-40.876c-.005-14.883 10.52-27.697 25.139-30.604 14.618-2.908 29.257 4.901 34.964 18.65 5.706 13.75.89 29.61-11.502 37.88-12.392 8.27-28.91 6.646-39.45-3.877a30.872 30.872 0 0 1-9.15-22.049zM252.313 91.22l17.561-17.535.075.103c.76.939 1.568 1.839 2.42 2.696a34.028 34.028 0 0 0 2.7 2.415l.103.075-.094.094-17.468 17.442a3.303 3.303 0 0 1-4.688 0l-.647-.646a3.283 3.283 0 0 1 .038-4.644zM170.42 51.364h68.943c5.777.019 10.52-4.556 10.7-10.322.18-5.765-4.268-10.626-10.034-10.968-1.964-7.497-8.741-12.73-16.502-12.742h-.216C219.267 5.585 207.381-1.587 195.085.3c-12.297 1.887-21.478 12.291-21.804 24.71a13.145 13.145 0 0 0-2.813-.31c-7.374 0-13.352 5.97-13.352 13.332 0 7.363 5.978 13.332 13.352 13.332h-.047zm0-24.342c1.233.005 2.457.217 3.62.628l1.622.477-.066-1.713v-.74c.097-11.49 8.555-21.201 19.938-22.89 11.383-1.69 22.304 5.146 25.743 16.112l.271.89 1.135-.076h.769c7.002.01 13.028 4.943 14.411 11.797l.197.936h1.266c4.598 0 8.326 3.722 8.326 8.314 0 4.591-3.728 8.313-8.326 8.313H170.42c-6.08 0-11.007-4.92-11.007-10.99 0-6.071 4.928-10.992 11.007-10.992v-.066zM12.414 142.45h2.09v2.07h-2.09v2.096h-2.1v-2.097H8.242v-2.069h2.072v-2.097h2.081l.019 2.097zm9.61 0h6.264v2.07h-6.263v-2.07zm36.108-37.833a2.249 2.249 0 0 0-2.24-2.237h-8.955a2.249 2.249 0 0 0-2.24 2.237v5.618l-11.177 6.9v9.662h2.11v-8.052h9.094v6.086l-6.244 28.086V163.3h-3.704v-23.94a3.935 3.935 0 0 0-3.928-3.931h-1.622v-2.098a2.002 2.002 0 0 0-2.035-2.003h-4.107a2.005 2.005 0 0 0-2.006 2.003v2.098h-5.626v-2.098a1.993 1.993 0 0 0-1.997-2.003H9.3a1.999 1.999 0 0 0-1.997 2.003v2.098h-1.35a3.935 3.935 0 0 0-3.929 3.932v23.948H0v2.07h43.702v-2.07h-3.206v-3.613l4.94-4.27 4.952 4.26v3.614h-2.673v2.069h7.267v-2.069h-2.475v-3.614l4.894-4.26 4.941 4.26v3.614h-3.207v2.069h7.07v-2.069h-1.781V153.15l-6.292-28.292v-6.114h9.105v8.052h2.072v-9.662l-11.177-6.853v-5.665zm-34.973 28.78h4.032v2.032h-4.032v-2.032zm-13.783 0h3.994v2.032H9.376v-2.032zm23.328 29.912H4.097V139.36c0-1.034.84-1.873 1.876-1.873h24.875c1.035 0 1.875.839 1.875 1.873l-.019 23.948zm14.064-51.417h3.591v4.784h-3.581l-.01-4.784zm-8.56 4.784l6.46-3.96v3.96h-6.46zm8.335 9.362h3.816v11.797h-6.413l2.597-11.797zm-6.075 30.961v-2.762h3.216l-3.216 2.762zm9.891 0l-3.216-2.762h3.216v2.762zm0-4.84h-9.6l2.728-12.255h6.9l-.028 12.255zm0-28.19h-3.61v-5.177h3.62l-.01 5.177zm0-14.1h-3.553v-5.364h3.563l-.01 5.365zm2.073-5.336h3.61v5.318h-3.535l-.075-5.318zm0 7.406h3.637v4.784h-3.562l-.075-4.784zm0 6.853h3.637v5.177h-3.562l-.075-5.177zm0 38.207v-2.762h3.216l-3.216 2.762zm9.882 0l-3.207-2.762h3.207v2.762zm-2.944-17.002l2.69 12.171h-9.553v-12.311h6.92l-.057.14zm-.478-2.162h-6.385v-11.797h3.844v.094l2.54 11.703zm5.691-21.112h-6.45v-3.96l6.45 3.96z" fill="url(#a)" fill-rule="nonzero"/></svg>